# xmcd
#
# Track frame offsets:
#	150
#	12562
#	23617
#	29886
#	38546
#	48972
#	61248
#	70866
#	81054
#	91143
#	106525
#	119658
#	128500
#	143252
#	158838
#
# Disc length: 2338 seconds
#
# Revision: 2
# Processed by: cddbd v1.5.2PL0 Copyright (c) Steve Scherf et al.
# Submitted via: EZCDAudioConverter 2.1.7.1
#
DISCID=b109200f
DTITLE=V/A - The Route To Quadrophenia
DYEAR=2011
DGENRE=MOJO
TTITLE0=Slim Harpo - Got Love If You Want It
TTITLE1=Bo Diddley - Who Do You Love?
TTITLE2=Mose Allison - Young Man Blues
TTITLE3=Eddie Cochran - Summertime Blues
TTITLE4=Johnny Kidd and The Pirates - Shakin' All Over
TTITLE5=Jimmy Reed - Big Boss Man
TTITLE6=Benny Spellman - Fortune Teller
TTITLE7=The Yardbirds - A Certain Girl
TTITLE8=Small Faces - Get Yourself Together
TTITLE9=The Action - Climbing Up The Wall
TTITLE10=The Creation - How Does It Feel
TTITLE11=The Impressions - The Young Mod's Forgotten Story
TTITLE12=Booker T. Jones - Progress
TTITLE13=The Who - Cut My Hair
TTITLE14=The Who - Joker James
EXTD=
EXTT0=
EXTT1=
EXTT2=
EXTT3=
EXTT4=
EXTT5=
EXTT6=
EXTT7=
EXTT8=
EXTT9=
EXTT10=
EXTT11=
EXTT12=
EXTT13=
EXTT14=
PLAYORDER=
